Coordinates
version=1
nRows=9
nColumns=24
inDegrees=yes

Units are S.I. units (second, meters, Newtons, ...)
Angles are in degrees.

endheader
time	pelvis_tilt	pelvis_list	pelvis_rotation	pelvis_tx	pelvis_ty	pelvis_tz	hip_flexion_r	hip_adduction_r	hip_rotation_r	knee_angle_r	ankle_angle_r	subtalar_angle_r	mtp_angle_r	hip_flexion_l	hip_adduction_l	hip_rotation_l	knee_angle_l	ankle_angle_l	subtalar_angle_l	mtp_angle_l	lumbar_extension	lumbar_bending	lumbar_rotation
      4.94500000	     -2.05186825	      8.78700877	     -5.14015615	      0.37920103	      1.02299845	     -0.20211330	     13.11394253	    -13.30469695	     -3.80187946	    -66.56332582	     -4.79500083	      0.99057967	      0.00000000	     12.13418054	     11.85009790	     -3.03751298	    -10.35686699	      6.26396316	    -12.44556056	      0.00000000	     -7.76245724	    -11.38852242	     -0.24586553
      4.95000000	     -1.98678185	      8.71186045	     -5.07374071	      0.38508663	      1.02376752	     -0.20270372	     13.79947076	    -13.17702554	     -3.82855181	    -67.07244428	     -3.38011439	      1.22976627	      0.00000000	     11.49807288	     11.89042772	     -2.80975892	     -9.98522252	      6.37627671	    -12.54788647	      0.00000000	     -7.85994048	    -11.24325783	     -0.45645466
      4.95500000	     -1.90162985	      8.63061373	     -4.94961532	      0.39101699	      1.02455380	     -0.20345510	     14.42715987	    -13.06984568	     -3.93579723	    -67.50119737	     -2.00246131	      1.44922611	      0.00000000	     10.78656617	     11.95224915	     -2.30211911	     -9.53179392	      6.34207905	    -12.91098860	      0.00000000	     -7.98359243	    -11.07537691	     -0.74620785
      4.96000000	     -1.81979830	      8.50711071	     -4.80105671	      0.39692034	      1.02535658	     -0.20422575	     15.02778987	    -12.92166612	     -4.09421856	    -67.84049843	     -0.68129064	      1.61564492	      0.00000000	     10.07945641	     11.96488289	     -1.81734929	     -9.09069104	      6.32316007	    -13.22846364	      0.00000000	     -8.11083827	    -10.85350528	     -1.03199275
      4.96500000	     -1.75470623	      8.35960120	     -4.63304893	      0.40281018	      1.02615176	     -0.20500606	     15.62081889	    -12.75008923	     -4.28951338	    -68.09748598	      0.58509632	      1.74289463	      0.00000000	      9.39390540	     11.94365572	     -1.38612067	     -8.66093318	      6.30537678	    -13.48577256	      0.00000000	     -8.21919093	    -10.60148073	     -1.31458887
      4.97000000	     -1.68763967	      8.19561883	     -4.45804158	      0.40869166	      1.02693314	     -0.20581207	     16.19535477	    -12.56380909	     -4.50692113	    -68.28055530	      1.76329536	      1.81348146	      0.00000000	      8.69211123	     11.90137972	     -0.90541812	     -8.21102736	      6.28078302	    -13.76754949	      0.00000000	     -8.32922314	    -10.32687827	     -1.60342432
      4.97500000	     -1.61394272	      8.01993220	     -4.27270254	      0.41455738	      1.02770955	     -0.20663043	     16.74445844	    -12.37099678	     -4.75659603	    -68.38776007	      2.84917724	      1.81820732	      0.00000000	      7.97244176	     11.84126705	     -0.38811064	     -7.74363146	      6.23903129	    -14.06543637	      0.00000000	     -8.44830381	    -10.03849516	     -1.89335379
      4.98000000	     -1.58860673	      7.81665090	     -4.14713862	      0.42031443	      1.02838804	     -0.20728365	     17.36153014	    -12.10521204	     -4.92975270	    -68.44030694	      3.85178799	      1.79022116	      0.00000000	      7.33484061	     11.71872597	     -0.01230332	     -7.32172554	      6.33349580	    -14.16903481	      0.00000000	     -8.51623946	     -9.73433025	     -2.08690406
      4.98500000	     -1.46729409	      7.62902088	     -3.88396170	      0.42621324	      1.02919906	     -0.20827040	     17.79604368	    -11.94695971	     -5.32107613	    -68.38699614	      4.77652605	      1.67862670	      0.00000000	      6.52467835	     11.65384058	      0.68718011	     -6.79594975	      6.16292607	    -14.64057870	      0.00000000	     -8.69336111	     -9.41655800	     -2.45608050
